# xmcd
#
# Track frame offsets:
#	150
#	12982
#	24847
#	40502
#	54910
#	69666
#	81327
#	101462
#	122449
#	142796
#
# Disc length: 2117 seconds
#
# Revision: 0
# Processed by: cddbd v1.5.2PL0 Copyright (c) Steve Scherf et al.
# Submitted via: audiograbber 1.83.01
#
DISCID=6d08430a
DTITLE=Herb Sharman - The 20th
DYEAR=1900
DGENRE=
TTITLE0=Streets of Bakersfield
TTITLE1=Take your memory with you
TTITLE2=Yet to succeed
TTITLE3=Passing silence (Herb Sharman original)
TTITLE4=Big city
TTITLE5=Takes a lot to rock you
TTITLE6=Free to go
TTITLE7=Ashes by now
TTITLE8=On the road
TTITLE9=Sing me back home
EXTD=
EXTT0=
EXTT1=
EXTT2=
EXTT3=
EXTT4=
EXTT5=
EXTT6=
EXTT7=
EXTT8=
EXTT9=
PLAYORDER=
